<svg xmlns="http://www.w3.org/2000/svg" viewBox="0 0 256 256" xml:space="preserve"><path fill="#FFCAC6" d="M228.887 214.506c-22.967 16.688-44.2 21.215-73.397 0-15.841-11.456-24.036-30.737-21.323-50.101l6.852-48.785c.301-2.138-1.233-11.045-1.617-22.46-.877-26.38 4.413-66.093 52.787-66.093 48.662 0 53.54 39.974 52.609 66.422-.384 11.004-1.781 19.665-1.439 22.131l6.852 48.785c2.713 19.364-5.482 38.645-21.324 50.101z"/><path fill="#FC5D3D" d="M244.797 93.489c-4.522 7.907-12.251 15.567-20.98 22.31-10.374 8.03-22.159 14.745-31.628 19.034-8.099-3.659-20.487-10.442-31.628-19.007-8.661-6.674-16.582-14.43-21.159-22.666-.877-26.38 4.413-66.093 52.787-66.093 48.662 0 53.54 39.974 52.608 66.422z"/><path fill="#FEB69F" d="M223.817 115.798c-10.374 8.03-22.159 14.745-31.628 19.034-8.099-3.659-20.487-10.442-31.628-19.007a40.872 40.872 0 0 1 13.046-10.442c-7.373-5.605-12.128-14.457-12.128-24.434 0-16.965 13.745-30.71 30.71-30.71s30.71 13.745 30.71 30.71c0 9.976-4.755 18.829-12.128 24.434 5.154 2.614 9.707 6.341 13.046 10.415z"/><path fill="#FFF" d="M192.189 216.126a40.006 40.006 0 0 1-23.608-7.651 2.501 2.501 0 0 1 2.932-4.05 35.035 35.035 0 0 0 20.676 6.701c17.336 0 44.332-17.768 40.618-44.277l-3.222-22.941a2.5 2.5 0 0 1 4.951-.695l3.223 22.942c4.19 29.908-25.214 49.971-45.57 49.971zm36.004-82.122-.556-3.961a2.5 2.5 0 0 1 4.951-.695l.556 3.961a2.5 2.5 0 0 1-4.951.695z"/><path fill="#72C2E9" d="M94.881 218.658c-18.486 13.389-43.482 13.389-61.968 0-19-13.806-30.443-29.948-27.037-54.253l6.852-48.785c.301-2.138-1.233-11.045-1.617-22.46-.877-26.38 4.413-66.093 52.787-66.093 48.662 0 53.54 39.974 52.609 66.422-.384 11.004-1.781 19.665-1.439 22.131l6.852 48.785c3.393 24.221-7.953 40.386-27.039 54.253z"/><path fill="#4BA5C8" d="M116.506 93.489c-4.522 7.907-12.251 15.567-20.98 22.31-10.374 8.03-22.159 14.745-31.628 19.034-8.099-3.659-20.487-10.442-31.628-19.007-8.661-6.674-16.582-14.43-21.159-22.666-.877-26.38 4.413-66.093 52.787-66.093 48.661 0 53.54 39.974 52.608 66.422z"/><path fill="#FEB69F" d="M95.525 115.798c-10.374 8.03-22.159 14.745-31.628 19.034-8.099-3.659-20.487-10.442-31.628-19.007a40.872 40.872 0 0 1 13.046-10.442c-7.373-5.605-12.128-14.457-12.128-24.434 0-16.965 13.745-30.71 30.71-30.71s30.71 13.745 30.71 30.71c0 9.976-4.755 18.829-12.128 24.434 5.154 2.614 9.708 6.341 13.046 10.415z"/><path fill="#C5E5FE" d="M63.897 216.126a40.008 40.008 0 0 1-23.608-7.651 2.501 2.501 0 0 1 2.932-4.05 35.037 35.037 0 0 0 20.676 6.701c17.346 0 44.333-17.778 40.618-44.277l-3.222-22.942a2.5 2.5 0 0 1 4.951-.695l3.222 22.942c4.19 29.886-25.188 49.972-45.569 49.972zm36.005-82.122-.556-3.961a2.5 2.5 0 0 1 4.951-.695l.556 3.961a2.5 2.5 0 0 1-4.951.695z"/><path d="M189.693 181.933v4.03h-4.34a2.5 2.5 0 0 0 0 5h4.34v6.28a2.5 2.5 0 0 0 2.5 2.5c1.37 0 2.5-1.12 2.5-2.5v-6.28h4.33a2.5 2.5 0 0 0 0-5h-4.33v-4.03c5.968-1.177 10.491-6.445 10.5-12.75-.01-7.17-5.84-13-13-13-7.17 0-13 5.83-13 13 0 6.306 4.523 11.575 10.5 12.75zm2.5-20.75c4.4 0 7.99 3.59 8 8-.01 4.4-3.6 7.99-8 8-4.41-.01-8-3.6-8-8 0-4.41 3.59-8 8-8zM164.233 167.643a2.484 2.484 0 0 0 3.26-1.37c.532-1.267-.099-2.747-1.37-3.26-1.25-.51-2.74.13-3.25 1.37h-.01c-.52 1.28.1 2.74 1.37 3.26zM185.667 73.879a2.5 2.5 0 0 0-2.5-2.5h-1.142a2.5 2.5 0 1 0 0 5h1.142a2.5 2.5 0 0 0 2.5-2.5zM202.353 71.379h-1.142a2.5 2.5 0 1 0 0 5h1.142a2.5 2.5 0 1 0 0-5zM199.643 82.203a2.51 2.51 0 0 0-2.89 2.03c-.39 2.2-2.31 3.8-4.57 3.8-2.25 0-4.16-1.6-4.56-3.8a2.51 2.51 0 0 0-2.89-2.03c-1.334.222-2.279 1.536-2.03 2.89.81 4.6 4.79 7.93 9.48 7.93s8.68-3.33 9.49-7.93c.252-1.365-.695-2.668-2.03-2.89z"/><path d="M153.781 216.349c26.35 19.271 48.096 20.873 76.572.183 16.626-12.024 25.185-32.131 22.334-52.475l-6.852-48.782c-.018-.131 1.327-17.859 1.461-21.699 1.463-41.555-14.045-69.01-55.107-69.01-40.725 0-56.662 27.271-55.285 68.677.191 5.69 1.64 22.029 1.64 22.029l-6.852 48.786c-3.345 23.868 9.786 44.574 22.089 52.291zm38.408-186.782c38.262 0 51.298 25.411 50.123 63.209-3.712 6.266-9.958 12.996-18.184 19.594a44.216 44.216 0 0 0-9.015-7.407c6.408-6.109 10.29-14.657 10.29-24.01-.011-9.75-4.186-19.024-11.956-25.519 2.638-1.913 3.761-4.941 3.806-8.191 0-2.098-1.465-2.929-2.69-2.84-1.37.1-2.41 1.3-2.31 2.67 0 2.594-.981 4.593-3.583 5.037a32.766 32.766 0 0 0-5.12-2.381c1.6-2.174 1.858-4.707 1.163-7.316-.34-1.31-1.73-2.13-3.05-1.78-1.33.34-2.13 1.71-1.79 3.05.597 2.199-.208 3.64-2.302 4.498a33.661 33.661 0 0 0-5.378-.438c-18.373 0-33.21 14.834-33.21 33.21 0 9.332 3.833 17.864 10.28 24.01a43.294 43.294 0 0 0-9.017 7.436c-8.476-6.774-14.639-13.47-18.356-19.934-1.104-37.924 12.511-62.898 50.299-62.898zm.001 102.516c-4.605-2.142-16.111-7.867-27.955-16.621a38.743 38.743 0 0 1 10.498-7.848c1.679-.84 1.828-3.137.39-4.22-7.08-5.39-11.14-13.57-11.14-22.44.02-15.53 12.68-28.19 28.21-28.21 15.52.02 28.18 12.68 28.21 28.21 0 8.87-4.06 17.05-11.14 22.44-1.478 1.114-1.261 3.399.38 4.22 3.878 1.968 7.523 4.7 10.496 7.818-8.456 6.282-18.446 12.249-27.949 16.651zm-55.547 32.67 6.852-48.783c.275-1.953-.442-6.497-1.059-13.945 10.803 13.422 29.22 25.502 44.498 33.077a63.93 63.93 0 0 0-19.371 20.012 2.498 2.498 0 1 0 4.26 2.61 59.057 59.057 0 0 1 21.493-20.658c16.521-7.499 36.969-20.739 48.465-34.868-.579 7.281-1.195 11.631-.897 13.77l6.852 48.784c2.592 18.504-5.191 36.793-20.313 47.729-21.606 14.404-40.258 21.95-69.594.635 6.604-37.073 6.355-35.821 6.784-37.702.31-1.34-.54-2.69-1.88-2.99-1.32-.31-2.69.57-2.99 1.88-.472 2.055-.108.17-6.369 35.323-12.748-11.103-19.11-27.896-16.731-44.874zM35.943 167.643a2.484 2.484 0 0 0 3.26-1.37c.52-1.28-.1-2.74-1.37-3.26-1.26-.51-2.75.13-3.26 1.37a2.496 2.496 0 0 0 1.37 3.26zM57.376 73.879a2.5 2.5 0 0 0-2.5-2.5h-1.142a2.5 2.5 0 1 0 0 5h1.142a2.5 2.5 0 0 0 2.5-2.5zM74.061 71.379h-1.142a2.5 2.5 0 1 0 0 5h1.142a2.5 2.5 0 1 0 0-5zM71.353 82.203a2.51 2.51 0 0 0-2.89 2.03c-.4 2.2-2.32 3.8-4.58 3.8-2.24 0-4.16-1.6-4.55-3.8-.23-1.34-1.55-2.27-2.89-2.03a2.505 2.505 0 0 0-2.03 2.9c.81 4.59 4.79 7.92 9.48 7.93 4.69-.01 8.68-3.34 9.49-7.94a2.5 2.5 0 0 0-2.03-2.89z"/><path d="M31.447 220.683a55.212 55.212 0 0 0 64.904-.002c19.749-14.349 31.591-31.307 28.043-56.623l-6.851-48.782c-.286-2.067 1.012-10.166 1.425-20.735 1.054-26.954-3.647-69.974-55.071-69.974-51.432 0-56.336 43.263-55.242 70.139.437 10.75 1.834 18.878 1.597 20.567L3.4 164.058c-3.688 26.316 9.312 43.013 28.047 56.625zm32.45-191.116c38.277 0 51.297 25.431 50.123 63.209-3.711 6.264-9.957 12.995-18.183 19.594a44.212 44.212 0 0 0-9.015-7.406c4.33-4.13 7.46-9.34 9.06-15.07.37-1.33-.4-2.71-1.73-3.08-1.31-.36-2.72.44-3.08 1.74-1.64 5.86-5.23 11.13-10.11 14.84-1.444 1.089-1.281 3.385.39 4.22a39.311 39.311 0 0 1 10.495 7.817c-8.456 6.283-18.447 12.251-27.95 16.653-4.605-2.143-16.111-7.868-27.954-16.622 3.022-3.176 6.604-5.871 10.5-7.848 1.642-.821 1.858-3.106.38-4.22-7.07-5.39-11.13-13.57-11.14-22.44.03-15.53 12.69-28.19 28.22-28.21 11.496 0 21.898 6.926 26.22 17.78.49 1.25 1.98 1.9 3.24 1.4a2.496 2.496 0 0 0 1.4-3.25c-2.049-5.166-5.358-9.683-9.618-13.226 3.544-2.555 3.982-7.194 3.798-8.694 0-1.185-1.146-2.46-2.67-2.35-1.37.1-2.41 1.3-2.31 2.67 0 2.636-1.013 4.606-3.607 5.04a32.795 32.795 0 0 0-5.117-2.362c1.624-2.195 1.867-4.772 1.183-7.338-.34-1.31-1.74-2.13-3.05-1.79a2.507 2.507 0 0 0-1.79 3.06c.609 2.3-.279 3.642-2.32 4.502a33.517 33.517 0 0 0-5.371-.442c-18.329 0-33.189 14.797-33.21 33.21a33.07 33.07 0 0 0 10.29 24.01 42.842 42.842 0 0 0-9.02 7.435c-8.476-6.774-14.638-13.469-18.355-19.933-1.101-37.924 12.513-62.899 50.301-62.899zM8.351 164.753l6.852-48.784c.275-1.951-.439-6.459-1.059-13.945 10.757 13.366 29.079 25.433 44.505 33.08a64.08 64.08 0 0 0-19.386 20.009c-.72 1.17-.35 2.72.83 3.44a2.495 2.495 0 0 0 3.44-.83 59.042 59.042 0 0 1 21.5-20.662c16.471-7.478 36.94-20.709 48.456-34.863-.58 7.289-1.195 11.632-.897 13.77l6.852 48.785c3.351 23.912-8.263 38.975-26.028 51.881a50.22 50.22 0 0 1-59.033.002l-4.846-3.521c6.757-37.923 6.351-35.792 6.786-37.702.31-1.35-.54-2.69-1.88-2.99-1.34-.31-2.69.55-2.99 1.88-.498 2.198-.1.128-6.37 35.325-12.748-11.102-19.111-27.896-16.732-44.875z"/><path d="M92.073 79.453a2.487 2.487 0 0 0 2.49 2.37h.13a2.498 2.498 0 0 0 2.37-2.63 2.496 2.496 0 0 0-2.63-2.36c-1.37.07-2.44 1.25-2.36 2.62zM59.213 194.673v-.04l.02.04c7.215 0 13.011-5.853 12.99-12.99a12.851 12.851 0 0 0-2.204-7.258l6.554-6.559v3.597a2.5 2.5 0 0 0 2.5 2.5c1.37 0 2.49-1.12 2.49-2.5v-9.573c.031-1.479-1.179-2.547-2.49-2.547h-9.62a2.5 2.5 0 0 0 0 5h3.577l-6.549 6.544a12.9 12.9 0 0 0-7.267-2.204c-7.151 0-12.99 5.783-12.99 13-.001 7.204 5.854 13.01 12.989 12.99zm.01-21c4.439.02 8 3.581 8 8.01 0 4.395-3.542 7.98-8 8a8.019 8.019 0 0 1-8-8 8.02 8.02 0 0 1 8-8.01z"/></svg>